<mxfile host="app.diagrams.net" agent="Mozilla/5.0 (Windows NT 10.0; Win64; x64) AppleWebKit/537.36 (KHTML, like Gecko) Chrome/139.0.0.0 Safari/537.36" version="28.1.1">
  <diagram name="Page-1" id="TPe6g1nWosQaAYiYuVpN">
    <mxGraphModel grid="1" page="1" gridSize="10" guides="1" tooltips="1" connect="1" arrows="1" fold="1" pageScale="1" pageWidth="827" pageHeight="1169" math="0" shadow="0">
      <root>
        <mxCell id="0" />
        <mxCell id="1" parent="0" />
        <mxCell id="LpC56awOYndZG2KtdmSC-5" style="edgeStyle=orthogonalEdgeStyle;rounded=0;orthogonalLoop=1;jettySize=auto;html=1;" edge="1" parent="1" source="LpC56awOYndZG2KtdmSC-2" target="LpC56awOYndZG2KtdmSC-6">
          <mxGeometry relative="1" as="geometry">
            <mxPoint x="390" y="90" as="targetPoint" />
          </mxGeometry>
        </mxCell>
        <mxCell id="LpC56awOYndZG2KtdmSC-2" value="&lt;h4&gt;&lt;font style=&quot;font-size: 21px;&quot;&gt;Plan&lt;/font&gt;&lt;/h4&gt;" style="ellipse;whiteSpace=wrap;html=1;fillColor=#ffcd28;strokeColor=#d79b00;gradientColor=#ffa500;" vertex="1" parent="1">
          <mxGeometry x="295" width="190" height="80" as="geometry" />
        </mxCell>
        <mxCell id="LpC56awOYndZG2KtdmSC-7" style="edgeStyle=orthogonalEdgeStyle;rounded=0;orthogonalLoop=1;jettySize=auto;html=1;" edge="1" parent="1" source="LpC56awOYndZG2KtdmSC-6" target="LpC56awOYndZG2KtdmSC-8">
          <mxGeometry relative="1" as="geometry">
            <mxPoint x="390" y="260" as="targetPoint" />
          </mxGeometry>
        </mxCell>
        <mxCell id="LpC56awOYndZG2KtdmSC-6" value="&lt;font style=&quot;color: light-dark(rgb(0, 0, 0), rgb(255, 247, 244)); font-size: 20px;&quot;&gt;Develop&lt;/font&gt;" style="ellipse;whiteSpace=wrap;html=1;fillColor=#f5f5f5;strokeColor=#666666;gradientColor=#b3b3b3;" vertex="1" parent="1">
          <mxGeometry x="295" y="150" width="190" height="70" as="geometry" />
        </mxCell>
        <mxCell id="LpC56awOYndZG2KtdmSC-10" value="" style="edgeStyle=orthogonalEdgeStyle;rounded=0;orthogonalLoop=1;jettySize=auto;html=1;" edge="1" parent="1" source="LpC56awOYndZG2KtdmSC-8" target="LpC56awOYndZG2KtdmSC-9">
          <mxGeometry relative="1" as="geometry" />
        </mxCell>
        <mxCell id="LpC56awOYndZG2KtdmSC-8" value="&lt;font style=&quot;font-size: 21px;&quot;&gt;Build&lt;/font&gt;" style="ellipse;whiteSpace=wrap;html=1;fillColor=#d5e8d4;strokeColor=#82b366;gradientColor=#97d077;" vertex="1" parent="1">
          <mxGeometry x="290" y="280" width="200" height="80" as="geometry" />
        </mxCell>
        <mxCell id="LpC56awOYndZG2KtdmSC-12" value="" style="edgeStyle=orthogonalEdgeStyle;rounded=0;orthogonalLoop=1;jettySize=auto;html=1;" edge="1" parent="1" source="LpC56awOYndZG2KtdmSC-9" target="LpC56awOYndZG2KtdmSC-11">
          <mxGeometry relative="1" as="geometry" />
        </mxCell>
        <mxCell id="LpC56awOYndZG2KtdmSC-9" value="&lt;span style=&quot;font-size: 21px;&quot;&gt;Test&lt;/span&gt;" style="ellipse;whiteSpace=wrap;html=1;fillColor=#f8cecc;strokeColor=#b85450;gradientColor=#ea6b66;" vertex="1" parent="1">
          <mxGeometry x="290" y="420" width="200" height="80" as="geometry" />
        </mxCell>
        <mxCell id="LpC56awOYndZG2KtdmSC-14" value="" style="edgeStyle=orthogonalEdgeStyle;rounded=0;orthogonalLoop=1;jettySize=auto;html=1;" edge="1" parent="1" source="LpC56awOYndZG2KtdmSC-11" target="LpC56awOYndZG2KtdmSC-13">
          <mxGeometry relative="1" as="geometry" />
        </mxCell>
        <mxCell id="LpC56awOYndZG2KtdmSC-11" value="&lt;span style=&quot;font-size: 21px;&quot;&gt;Release&lt;/span&gt;" style="ellipse;whiteSpace=wrap;html=1;fillColor=#e6d0de;strokeColor=#996185;gradientColor=#d5739d;" vertex="1" parent="1">
          <mxGeometry x="290" y="560" width="200" height="80" as="geometry" />
        </mxCell>
        <mxCell id="LpC56awOYndZG2KtdmSC-16" value="" style="edgeStyle=orthogonalEdgeStyle;rounded=0;orthogonalLoop=1;jettySize=auto;html=1;" edge="1" parent="1" source="LpC56awOYndZG2KtdmSC-13" target="LpC56awOYndZG2KtdmSC-15">
          <mxGeometry relative="1" as="geometry" />
        </mxCell>
        <mxCell id="LpC56awOYndZG2KtdmSC-13" value="&lt;span style=&quot;font-size: 21px;&quot;&gt;Deploy&lt;/span&gt;" style="ellipse;whiteSpace=wrap;html=1;fillColor=#dae8fc;strokeColor=#6c8ebf;gradientColor=#7ea6e0;" vertex="1" parent="1">
          <mxGeometry x="290" y="710" width="200" height="80" as="geometry" />
        </mxCell>
        <mxCell id="LpC56awOYndZG2KtdmSC-18" value="" style="edgeStyle=orthogonalEdgeStyle;rounded=0;orthogonalLoop=1;jettySize=auto;html=1;" edge="1" parent="1" source="LpC56awOYndZG2KtdmSC-15" target="LpC56awOYndZG2KtdmSC-17">
          <mxGeometry relative="1" as="geometry" />
        </mxCell>
        <mxCell id="LpC56awOYndZG2KtdmSC-15" value="&lt;span style=&quot;font-size: 21px;&quot;&gt;Operate&lt;/span&gt;" style="ellipse;whiteSpace=wrap;html=1;fillColor=#ffcccc;strokeColor=#36393d;" vertex="1" parent="1">
          <mxGeometry x="290" y="860" width="200" height="80" as="geometry" />
        </mxCell>
        <mxCell id="LpC56awOYndZG2KtdmSC-17" value="&lt;span style=&quot;font-size: 21px;&quot;&gt;Monitor&lt;/span&gt;" style="ellipse;whiteSpace=wrap;html=1;fillColor=#ffcc99;strokeColor=#36393d;" vertex="1" parent="1">
          <mxGeometry x="290" y="1020" width="200" height="80" as="geometry" />
        </mxCell>
      </root>
    </mxGraphModel>
  </diagram>
</mxfile>
